<mxfile host="app.diagrams.net" modified="2023-06-08T09:22:55.812Z" agent="Mozilla/5.0 (X11; Ubuntu; Linux x86_64; rv:109.0) Gecko/20100101 Firefox/114.0" etag="o3m7tadnShLUkuFTYKO0" version="21.3.7" type="device">
  <diagram id="71IxqLbchl5RIq7VZlb2" name="Page-1">
    <mxGraphModel dx="1183" dy="1326" grid="1" gridSize="10" guides="1" tooltips="1" connect="1" arrows="1" fold="1" page="1" pageScale="1" pageWidth="827" pageHeight="1169" math="0" shadow="0">
      <root>
        <mxCell id="0" />
        <mxCell id="1" parent="0" />
        <mxCell id="gjE-pbqwtrV_U-_wfTMh-6" value="" style="rounded=0;whiteSpace=wrap;html=1;" parent="1" vertex="1">
          <mxGeometry x="20" y="220" width="570" height="200" as="geometry" />
        </mxCell>
        <mxCell id="gjE-pbqwtrV_U-_wfTMh-3" value="starts" style="edgeStyle=orthogonalEdgeStyle;rounded=0;orthogonalLoop=1;jettySize=auto;html=1;" parent="1" source="gjE-pbqwtrV_U-_wfTMh-1" target="gjE-pbqwtrV_U-_wfTMh-2" edge="1">
          <mxGeometry relative="1" as="geometry" />
        </mxCell>
        <mxCell id="gjE-pbqwtrV_U-_wfTMh-1" value="Coreboot" style="rounded=0;whiteSpace=wrap;html=1;" parent="1" vertex="1">
          <mxGeometry x="40" y="260" width="120" height="60" as="geometry" />
        </mxCell>
        <mxCell id="gjE-pbqwtrV_U-_wfTMh-5" value="uses" style="edgeStyle=orthogonalEdgeStyle;rounded=0;orthogonalLoop=1;jettySize=auto;html=1;" parent="1" source="gjE-pbqwtrV_U-_wfTMh-2" target="gjE-pbqwtrV_U-_wfTMh-4" edge="1">
          <mxGeometry relative="1" as="geometry" />
        </mxCell>
        <mxCell id="gjE-pbqwtrV_U-_wfTMh-2" value="GRUB 2" style="rounded=0;whiteSpace=wrap;html=1;" parent="1" vertex="1">
          <mxGeometry x="240" y="260" width="120" height="60" as="geometry" />
        </mxCell>
        <mxCell id="gjE-pbqwtrV_U-_wfTMh-4" value="GRUB configuration" style="rounded=0;whiteSpace=wrap;html=1;" parent="1" vertex="1">
          <mxGeometry x="440" y="260" width="120" height="60" as="geometry" />
        </mxCell>
        <mxCell id="gjE-pbqwtrV_U-_wfTMh-8" value="CBFS" style="text;html=1;strokeColor=none;fillColor=none;align=center;verticalAlign=middle;whiteSpace=wrap;rounded=0;" parent="1" vertex="1">
          <mxGeometry x="280" y="220" width="40" height="20" as="geometry" />
        </mxCell>
        <mxCell id="gjE-pbqwtrV_U-_wfTMh-9" value="" style="rounded=0;whiteSpace=wrap;html=1;" parent="1" vertex="1">
          <mxGeometry x="20" y="20" width="570" height="170" as="geometry" />
        </mxCell>
        <mxCell id="gjE-pbqwtrV_U-_wfTMh-10" value="System Software image" style="text;html=1;strokeColor=none;fillColor=none;align=center;verticalAlign=middle;whiteSpace=wrap;rounded=0;" parent="1" vertex="1">
          <mxGeometry x="227.5" y="20" width="145" height="26.36" as="geometry" />
        </mxCell>
        <mxCell id="gjE-pbqwtrV_U-_wfTMh-12" value="public Boot Key" style="rounded=0;whiteSpace=wrap;html=1;" parent="1" vertex="1">
          <mxGeometry x="40" y="340" width="120" height="60" as="geometry" />
        </mxCell>
        <mxCell id="gjE-pbqwtrV_U-_wfTMh-17" value="" style="rounded=0;whiteSpace=wrap;html=1;" parent="1" vertex="1">
          <mxGeometry x="40" y="50" width="220" height="120" as="geometry" />
        </mxCell>
        <mxCell id="gjE-pbqwtrV_U-_wfTMh-18" value="Muen" style="rounded=0;whiteSpace=wrap;html=1;" parent="1" vertex="1">
          <mxGeometry x="50" y="82" width="80" height="40" as="geometry" />
        </mxCell>
        <mxCell id="gjE-pbqwtrV_U-_wfTMh-19" value="Subjects" style="rounded=0;whiteSpace=wrap;html=1;" parent="1" vertex="1">
          <mxGeometry x="140" y="82" width="80" height="40" as="geometry" />
        </mxCell>
        <mxCell id="gjE-pbqwtrV_U-_wfTMh-20" value="Subjects" style="rounded=0;whiteSpace=wrap;html=1;" parent="1" vertex="1">
          <mxGeometry x="150" y="92" width="80" height="40" as="geometry" />
        </mxCell>
        <mxCell id="gjE-pbqwtrV_U-_wfTMh-21" value="Subjects" style="rounded=0;whiteSpace=wrap;html=1;" parent="1" vertex="1">
          <mxGeometry x="160" y="102" width="80" height="40" as="geometry" />
        </mxCell>
        <mxCell id="gjE-pbqwtrV_U-_wfTMh-16" value="signed with Boot Key" style="text;html=1;strokeColor=none;fillColor=none;align=center;verticalAlign=middle;whiteSpace=wrap;rounded=0;" parent="1" vertex="1">
          <mxGeometry x="35" y="147" width="150" height="20" as="geometry" />
        </mxCell>
        <mxCell id="gjE-pbqwtrV_U-_wfTMh-22" value="SBS image" style="text;html=1;strokeColor=none;fillColor=none;align=center;verticalAlign=middle;whiteSpace=wrap;rounded=0;" parent="1" vertex="1">
          <mxGeometry x="110" y="50" width="80" height="20" as="geometry" />
        </mxCell>
        <mxCell id="gjE-pbqwtrV_U-_wfTMh-24" value="GRUB configuration" style="rounded=0;whiteSpace=wrap;html=1;" parent="1" vertex="1">
          <mxGeometry x="280" y="75" width="120" height="60" as="geometry" />
        </mxCell>
        <mxCell id="gjE-pbqwtrV_U-_wfTMh-25" value="Signature of &lt;br&gt;GRUB configuration" style="rounded=0;whiteSpace=wrap;html=1;" parent="1" vertex="1">
          <mxGeometry x="420" y="75" width="120" height="60" as="geometry" />
        </mxCell>
        <mxCell id="gjE-pbqwtrV_U-_wfTMh-28" value="verifies" style="edgeStyle=orthogonalEdgeStyle;rounded=0;orthogonalLoop=1;jettySize=auto;html=1;exitX=0.25;exitY=0;exitDx=0;exitDy=0;" parent="1" edge="1">
          <mxGeometry relative="1" as="geometry">
            <mxPoint x="260" y="260" as="sourcePoint" />
            <mxPoint x="260" y="191" as="targetPoint" />
            <Array as="points">
              <mxPoint x="260" y="191" />
            </Array>
          </mxGeometry>
        </mxCell>
      </root>
    </mxGraphModel>
  </diagram>
</mxfile>
